<?xml version="1.0" encoding="UTF-8"?>
<svg xmlns="http://www.w3.org/2000/svg" xmlns:xlink="http://www.w3.org/1999/xlink" width="317pt" height="111pt" viewBox="0 0 317 111" version="1.1">
<g id="surface1">
<path style=" stroke:none;fill-rule:evenodd;fill:rgb(97.599792%,61.599731%,10.998535%);fill-opacity:1;" d="M 157.664063 9.335938 L 159.582031 0.71875 L 160.386719 9.523438 L 163.359375 1.214844 L 163.050781 10.019531 L 167.140625 2.207031 L 165.652344 10.949219 L 170.730469 3.695313 L 168.128906 12.125 L 174.074219 5.679688 L 170.421875 13.675781 L 177.109375 8.035156 L 172.464844 15.472656 L 179.898438 10.699219 L 174.261719 17.582031 L 182.3125 13.800781 L 175.871094 19.875 L 184.171875 17.148438 L 177.046875 22.292969 L 185.65625 20.867188 L 177.914063 24.898438 L 186.773438 24.523438 L 178.410156 27.5625 L 187.269531 28.367188 L 178.597656 30.351563 L 187.269531 32.210938 L 178.410156 33.019531 L 186.773438 36.117188 L 177.914063 35.808594 L 185.65625 39.835938 L 177.046875 38.347656 L 184.171875 43.433594 L 175.871094 40.828125 L 182.3125 46.78125 L 174.261719 43.121094 L 179.898438 49.878906 L 172.464844 45.230469 L 177.109375 52.609375 L 170.421875 47.027344 L 174.074219 54.964844 L 168.128906 48.515625 L 170.730469 56.824219 L 165.652344 49.757813 L 167.140625 58.3125 L 163.050781 50.6875 L 163.359375 59.304688 L 160.386719 51.183594 L 159.582031 59.796875 L 157.664063 51.367188 L 155.742188 59.796875 L 154.9375 51.183594 L 151.964844 59.304688 L 152.273438 50.6875 L 148.1875 58.3125 L 149.675781 49.757813 L 144.59375 56.824219 L 147.195313 48.515625 L 141.25 54.964844 L 144.90625 47.027344 L 138.214844 52.609375 L 142.859375 45.230469 L 135.429688 49.878906 L 141.066406 43.121094 L 133.011719 46.78125 L 139.453125 40.828125 L 131.15625 43.433594 L 138.277344 38.347656 L 129.667969 39.835938 L 137.410156 35.808594 L 128.554688 36.117188 L 136.914063 33.019531 L 128.058594 32.210938 L 136.730469 30.351563 L 128.058594 28.367188 L 136.914063 27.5625 L 128.554688 24.523438 L 137.410156 24.898438 L 129.667969 20.867188 L 138.277344 22.292969 L 131.15625 17.148438 L 139.453125 19.875 L 133.011719 13.800781 L 141.066406 17.582031 L 135.429688 10.699219 L 142.859375 15.472656 L 138.214844 8.035156 L 144.90625 13.675781 L 141.25 5.679688 L 147.195313 12.125 L 144.59375 3.695313 L 149.675781 10.949219 L 148.1875 2.207031 L 152.273438 10.019531 L 151.964844 1.214844 L 154.9375 9.523438 L 155.742188 0.71875 L 157.664063 9.335938 "/>
<path style=" stroke:none;fill-rule:evenodd;fill:rgb(13.699341%,12.199402%,12.5%);fill-opacity:1;" d="M 123.742188 89.101563 C 124.238281 89.101563 124.238281 89.101563 124.59375 89.101563 C 127.367188 89.101563 129.855469 91.304688 129.855469 95.003906 C 129.855469 98.554688 127.367188 100.828125 124.59375 100.828125 C 124.238281 100.828125 124.238281 100.828125 123.742188 100.828125 Z M 110.878906 100.828125 C 110.449219 100.828125 110.238281 100.828125 110.238281 100.828125 C 107.179688 100.828125 104.765625 98.554688 104.765625 95.003906 C 104.765625 91.304688 107.179688 89.101563 110.238281 89.101563 C 110.238281 89.101563 110.449219 89.101563 110.878906 89.101563 Z M 56.929688 73.535156 C 55.652344 72.613281 54.65625 70.90625 54.65625 68.703125 C 54.65625 63.515625 58.492188 60.316406 66.382813 60.316406 C 74.273438 60.316406 77.824219 63.515625 77.824219 68.703125 C 77.824219 70.765625 76.761719 72.753906 76.050781 73.535156 Z M 123.742188 105.945313 C 125.378906 107.082031 127.4375 107.296875 129.429688 107.296875 C 136.535156 107.296875 142.507813 101.964844 142.292969 94.574219 C 142.078125 88.105469 136.464844 82.632813 129.355469 82.632813 C 127.367188 82.632813 125.378906 82.847656 123.742188 83.414063 L 123.742188 79.433594 L 142.433594 79.433594 L 142.433594 73.535156 L 90.335938 73.535156 C 91.472656 72.113281 91.96875 70.050781 91.96875 68.0625 C 91.96875 59.746094 80.597656 54.484375 66.167969 54.484375 C 52.027344 54.484375 40.511719 59.746094 40.511719 68.0625 C 40.511719 70.050781 40.9375 72.113281 42.21875 73.535156 L 34.257813 73.535156 L 37.3125 71.472656 C 34.042969 67.070313 34.683594 60.882813 35.535156 55.835938 L 23.167969 56.832031 L 25.519531 69.445313 L 18.976563 56.265625 L 6.109375 62.234375 L 16.628906 73.535156 L 0.140625 73.535156 L 0.140625 79.433594 L 21.820313 79.433594 L 23.167969 81.425781 C 16.628906 81.28125 7.246094 81.425781 2.769531 87.894531 C 0.140625 91.660156 -0.015625 98.054688 2.910156 101.824219 C 7.816406 108.71875 19.613281 109.511719 26.4375 105.660156 C 27.71875 107.582031 30.914063 109.582031 33.332031 110.082031 L 39.300781 105.660156 C 37.527344 105.660156 36.03125 104.3125 34.894531 102.464844 C 37.3125 101.328125 38.875 98.980469 38.875 96.421875 C 38.875 92.371094 34.894531 88.675781 30.132813 88.675781 C 25.585938 88.675781 21.605469 92.371094 21.605469 96.421875 C 21.605469 98.054688 22.457031 99.691406 23.59375 101.328125 C 21.605469 102.464844 18.335938 101.679688 16.628906 100.402344 C 13.929688 98.554688 13.714844 94.289063 15.777344 91.089844 C 18.335938 87.253906 23.167969 85.972656 28.214844 85.617188 C 31.769531 85.191406 35.464844 85.191406 38.804688 85.972656 L 34.683594 79.433594 L 42.074219 79.433594 L 42.074219 109.15625 L 55.011719 109.15625 L 55.011719 79.433594 L 76.902344 79.433594 L 76.902344 83.558594 C 73.703125 82.988281 71.074219 82.632813 68.089844 82.847656 C 61.195313 83.414063 55.792969 89.242188 56.574219 96.421875 L 56.785156 97.703125 C 57.640625 101.679688 61.195313 104.523438 65.742188 104.523438 C 70.292969 104.523438 74.273438 100.828125 74.273438 95.78125 C 74.273438 93.507813 73.066406 90.734375 71.570313 89.101563 C 72.851563 88.675781 75.550781 89.242188 76.902344 90.023438 L 76.902344 109.15625 L 89.484375 109.15625 L 89.484375 79.433594 L 110.878906 79.433594 L 110.878906 83.414063 C 109.101563 82.847656 107.179688 82.632813 105.191406 82.632813 C 98.226563 82.632813 92.46875 88.105469 92.46875 94.574219 C 92.46875 101.679688 98.226563 107.4375 105.191406 107.582031 C 108.035156 107.652344 109.667969 106.871094 110.878906 106.230469 L 110.878906 109.15625 L 123.742188 109.15625 L 123.742188 105.945313 "/>
<path style=" stroke:none;fill-rule:evenodd;fill:rgb(13.699341%,12.199402%,12.5%);fill-opacity:1;" d="M 231.078125 79.433594 C 238.46875 79.433594 245.222656 79.433594 252.683594 79.433594 L 252.683594 83.414063 C 250.765625 82.847656 249.058594 82.5625 247.210938 82.5625 C 241.878906 82.5625 236.976563 85.191406 235.414063 89.8125 L 233.28125 89.8125 C 233.566406 89.171875 233.921875 87.609375 233.921875 86.402344 C 233.921875 83.558594 232.851563 81.425781 231.078125 79.433594 Z M 265.265625 89.101563 C 265.691406 89.101563 265.691406 89.101563 266.332031 89.101563 C 268.960938 89.101563 271.734375 91.304688 271.734375 95.003906 C 271.734375 98.554688 268.960938 100.828125 266.332031 100.828125 C 265.691406 100.828125 265.691406 100.828125 265.265625 100.828125 Z M 316.085938 73.535156 C 279.550781 73.535156 243.300781 73.535156 174.289063 73.535156 L 174.289063 79.433594 L 177.128906 79.433594 L 177.128906 88.105469 C 175.140625 88.105469 172.796875 88.105469 170.804688 88.105469 L 170.804688 79.433594 C 170.945313 74.886719 168.101563 71.6875 163.484375 71.472656 C 159.433594 70.765625 154.742188 72.824219 151.539063 75.953125 L 154.742188 79.933594 C 156.089844 79.292969 158.4375 77.445313 159.433594 78.652344 C 159.433594 81.425781 159.433594 84.550781 159.433594 86.898438 C 151.046875 87.75 150.832031 93.792969 154.03125 98.980469 C 156.800781 103.53125 163.128906 108.363281 168.601563 105.660156 C 170.09375 104.953125 170.804688 103.457031 170.804688 100.332031 L 170.804688 93.792969 L 177.128906 93.792969 L 177.128906 109.15625 L 189.496094 109.15625 L 189.496094 79.433594 L 192.980469 79.433594 L 192.980469 109.15625 L 205.417969 109.15625 L 205.417969 79.433594 L 216.503906 79.433594 C 219.347656 79.933594 221.625 82.632813 221.625 85.191406 C 221.625 88.105469 219.347656 90.664063 216.152344 90.664063 C 214.089844 90.664063 212.667969 88.105469 209.398438 88.675781 L 206.269531 95.003906 C 208.757813 95.78125 210.039063 97.488281 210.820313 100.402344 C 212.667969 107.511719 219.5625 112.355469 230.152344 109.582031 L 233.921875 101.679688 C 230.152344 103.53125 222.691406 103.105469 220.628906 97.703125 C 223.1875 97.914063 227.382813 98.199219 230.652344 94.574219 L 234.203125 94.574219 C 234.203125 101.679688 239.605469 107.722656 246.855469 107.722656 C 249.910156 107.722656 251.691406 106.800781 252.683594 106.230469 L 252.683594 109.15625 L 265.265625 109.15625 L 265.265625 105.660156 C 267.113281 106.800781 268.960938 107.4375 271.023438 107.4375 C 278.273438 107.4375 283.886719 101.679688 283.886719 94.574219 C 283.886719 88.105469 278.273438 82.5625 271.023438 82.5625 C 268.960938 82.5625 267.113281 82.847656 265.265625 83.414063 L 265.265625 79.433594 C 271.734375 79.433594 278.699219 79.433594 295.046875 79.433594 C 297.890625 79.933594 300.375 82.632813 300.375 85.191406 C 300.375 88.105469 297.890625 90.664063 295.046875 90.664063 C 292.273438 90.664063 291.351563 88.105469 287.726563 88.675781 L 284.738281 95.003906 C 287.726563 95.78125 288.4375 97.703125 289.144531 100.402344 C 291.066406 108.007813 299.097656 112.355469 308.691406 109.582031 L 312.246094 101.679688 C 308.691406 103.53125 301.15625 103.105469 299.097656 97.703125 C 299.878906 97.703125 300.875 97.773438 302.296875 97.703125 C 307.910156 97.417969 312.742188 92.585938 312.742188 86.898438 C 312.742188 84.054688 311.679688 81.425781 309.402344 79.433594 L 316.085938 79.433594 Z M 252.683594 100.828125 C 252.046875 100.828125 251.832031 100.828125 251.832031 100.828125 C 248.703125 100.828125 246.429688 98.554688 246.429688 95.003906 C 246.429688 91.304688 248.703125 89.101563 251.832031 89.101563 C 251.832031 89.101563 252.046875 89.101563 252.683594 89.101563 L 252.683594 100.828125 "/>
</g>
</svg>
