<?xml version="1.0" encoding="UTF-8"?>
<svg xmlns="http://www.w3.org/2000/svg" xmlns:xlink="http://www.w3.org/1999/xlink" width="2162pt" height="393pt" viewBox="0 0 2162 393" version="1.1">
<g id="surface1">
<path style=" stroke:none;fill-rule:nonzero;fill:rgb(13.699341%,12.199402%,12.5%);fill-opacity:1;" d="M 238.609375 118.425781 L 387.9375 118.425781 L 387.9375 143.320313 L 281.664063 143.320313 L 281.664063 163.347656 L 382.746094 163.347656 L 382.746094 187.71875 L 281.664063 187.71875 L 281.664063 224.351563 L 238.609375 224.351563 Z M 548.328125 224.351563 L 535.429688 206.414063 L 435.960938 206.414063 L 423.0625 224.351563 L 370.714844 224.351563 L 450.476563 118.425781 L 521.664063 118.425781 L 600.335938 224.351563 Z M 519.367188 183.214844 L 490.375 143.109375 L 481.234375 143.109375 L 452.242188 183.214844 Z M 618.78125 224.351563 L 618.78125 118.425781 L 722.796875 118.421875 C 747.203125 118.476563 761.824219 118.660156 766.664063 119.007813 C 771.5 119.351563 776.164063 120.542969 780.648438 122.609375 C 786.015625 125.046875 789.6875 128.382813 791.703125 132.675781 C 793.71875 136.9375 794.703125 143.640625 794.703125 152.804688 C 794.703125 160.515625 794.070313 166.15625 792.796875 169.785156 C 791.53125 173.414063 789.128906 176.300781 785.59375 178.472656 C 781.8125 180.804688 776.09375 182.417969 768.429688 183.292969 C 777.46875 183.796875 783.929688 185.757813 787.890625 189.121094 C 790.148438 191.132813 791.597656 193.570313 792.234375 196.429688 C 792.835938 199.320313 793.152344 205.328125 793.152344 214.496094 L 793.152344 224.351563 L 750.734375 224.351563 L 750.734375 218.683594 C 750.734375 212.773438 750.453125 208.589844 749.847656 206.074219 C 749.25 203.554688 748.1875 201.621094 746.601563 200.273438 C 745.011719 199.054688 742.820313 198.257813 740.03125 197.914063 C 737.242188 197.570313 731.378906 197.410156 722.476563 197.410156 L 661.835938 197.410156 L 661.835938 224.351563 Z M 661.835938 170.949219 L 722.371094 170.949219 C 732.933594 170.789063 739.21875 170.660156 741.265625 170.527344 C 743.28125 170.394531 745.046875 169.996094 746.496094 169.308594 C 748.332031 168.433594 749.636719 167.136719 750.414063 165.414063 C 751.15625 163.664063 751.546875 161.042969 751.546875 157.519531 C 751.546875 154.078125 751.117188 151.480469 750.238281 149.757813 C 749.390625 148.0625 747.90625 146.820313 745.753906 146.050781 C 744.234375 145.519531 742.433594 145.230469 740.3125 145.121094 C 738.230469 145.019531 732.191406 144.9375 722.265625 144.882813 L 661.835938 144.882813 Z M 822.492188 118.425781 L 907.101563 118.425781 L 952.640625 187.1875 L 998.21875 118.421875 L 1082.371094 118.421875 L 1082.371094 224.351563 L 1036.371094 224.351563 L 1037.480469 145.042969 L 1029.859375 145.042969 L 972.0625 224.351563 L 933.339844 224.351563 L 875.578125 145.042969 L 867.382813 145.042969 L 868.492188 224.351563 L 822.492188 224.351563 Z M 1100.128906 118.425781 L 1271.070313 118.425781 L 1271.070313 145.441406 L 1208.238281 145.441406 L 1208.238281 224.351563 L 1163.03125 224.351563 L 1163.03125 145.441406 L 1100.128906 145.441406 Z M 1285.570313 224.351563 L 1285.570313 118.421875 L 1389.578125 118.425781 C 1413.988281 118.476563 1428.609375 118.660156 1433.449219 119.007813 C 1438.289063 119.351563 1442.949219 120.542969 1447.429688 122.609375 C 1452.800781 125.046875 1456.480469 128.382813 1458.488281 132.675781 C 1460.5 136.9375 1461.488281 143.640625 1461.488281 152.804688 C 1461.488281 160.515625 1460.851563 166.15625 1459.578125 169.785156 C 1458.308594 173.414063 1455.910156 176.300781 1452.378906 178.472656 C 1448.601563 180.804688 1442.878906 182.417969 1435.210938 183.292969 C 1444.25 183.796875 1450.71875 185.757813 1454.671875 189.121094 C 1456.941406 191.132813 1458.378906 193.570313 1459.019531 196.429688 C 1459.621094 199.320313 1459.941406 205.328125 1459.941406 214.496094 L 1459.941406 224.351563 L 1417.519531 224.351563 L 1417.519531 218.683594 C 1417.519531 212.773438 1417.238281 208.589844 1416.628906 206.074219 C 1416.03125 203.554688 1414.980469 201.621094 1413.390625 200.273438 C 1411.800781 199.054688 1409.609375 198.257813 1406.820313 197.914063 C 1404.03125 197.570313 1398.160156 197.410156 1389.261719 197.410156 L 1328.621094 197.410156 L 1328.621094 224.351563 Z M 1328.621094 170.949219 L 1389.160156 170.949219 C 1399.71875 170.789063 1406 170.660156 1408.050781 170.527344 C 1410.058594 170.394531 1411.828125 169.996094 1413.28125 169.308594 C 1415.121094 168.433594 1416.421875 167.136719 1417.199219 165.414063 C 1417.941406 163.664063 1418.328125 161.042969 1418.328125 157.519531 C 1418.328125 154.078125 1417.898438 151.480469 1417.03125 149.757813 C 1416.179688 148.0625 1414.691406 146.820313 1412.539063 146.050781 C 1411.019531 145.519531 1409.21875 145.230469 1407.101563 145.121094 C 1405.019531 145.019531 1398.980469 144.9375 1389.050781 144.882813 L 1328.621094 144.882813 Z M 1866.238281 183.453125 L 1909.289063 183.453125 C 1909.539063 188.617188 1909.679688 191.953125 1909.679688 193.464844 C 1909.679688 201.648438 1908.058594 208.035156 1904.808594 212.640625 C 1901.238281 217.808594 1894.25 221.332031 1883.828125 223.183594 C 1873.410156 225.066406 1855.398438 225.992188 1829.789063 225.992188 C 1802.921875 225.992188 1783.738281 225.59375 1772.328125 224.828125 C 1760.921875 224.058594 1752.300781 222.546875 1746.511719 220.324219 C 1741.351563 218.308594 1737.46875 215.582031 1734.929688 212.164063 C 1732.378906 208.75 1730.71875 204.085938 1729.949219 198.125 C 1729.351563 193.304688 1729.03125 184.617188 1729.03125 172.035156 C 1729.03125 159.773438 1729.351563 150.925781 1729.949219 145.496094 C 1730.578125 140.0625 1731.78125 135.851563 1733.578125 132.859375 C 1737.5 126.132813 1745.488281 121.761719 1757.488281 119.777344 C 1769.5 117.789063 1793.699219 116.78125 1830.109375 116.78125 C 1848.328125 116.78125 1861.578125 117.101563 1869.851563 117.710938 C 1878.140625 118.34375 1884.710938 119.507813 1889.621094 121.203125 C 1896.050781 123.484375 1900.53125 126.871094 1903.179688 131.351563 C 1905.800781 135.828125 1907.109375 142.394531 1907.109375 151.109375 C 1907.109375 151.5625 1907.070313 153.335938 1907 156.378906 L 1863.980469 156.378906 C 1863.769531 152.859375 1863.449219 150.503906 1863.101563 149.308594 C 1862.710938 148.117188 1861.929688 147.136719 1860.769531 146.34375 C 1859.109375 145.257813 1854.941406 144.460938 1848.230469 143.984375 C 1841.550781 143.480469 1831.421875 143.242188 1817.820313 143.242188 C 1804.359375 143.246094 1795.039063 143.453125 1789.878906 143.90625 C 1784.691406 144.355469 1781.050781 145.203125 1778.898438 146.503906 C 1776.359375 148.0625 1774.589844 150.660156 1773.558594 154.34375 C 1772.578125 158.023438 1772.078125 163.878906 1772.078125 171.902344 C 1772.078125 179.902344 1772.539063 185.570313 1773.421875 188.855469 C 1774.300781 192.140625 1776.039063 194.496094 1778.609375 195.953125 C 1781.019531 197.359375 1784.871094 198.285156 1790.128906 198.761719 C 1795.429688 199.214844 1804.75 199.453125 1818.140625 199.453125 C 1834.601563 199.453125 1845.621094 199.238281 1851.089844 198.839844 C 1856.558594 198.417969 1860.269531 197.515625 1862.21875 196.113281 C 1864.75 194.3125 1866.101563 190.074219 1866.238281 183.453125 Z M 1662.429688 224.351563 L 1649.53125 206.414063 L 1550.058594 206.414063 L 1537.160156 224.351563 L 1484.820313 224.351563 L 1564.578125 118.421875 L 1635.769531 118.421875 L 1714.441406 224.351563 Z M 1633.46875 183.214844 L 1604.480469 143.109375 L 1595.339844 143.109375 L 1566.351563 183.214844 L 1633.46875 183.214844 "/>
<path style=" stroke:none;fill-rule:evenodd;fill:rgb(0.799561%,31.399536%,63.899231%);fill-opacity:1;" d="M 294.8125 271.753906 L 1853.480469 271.753906 C 1878.648438 271.753906 1899.238281 292.339844 1899.238281 317.503906 L 1899.238281 346.484375 C 1899.238281 371.648438 1878.648438 392.234375 1853.480469 392.238281 L 294.8125 392.234375 C 269.644531 392.234375 249.054688 371.648438 249.054688 346.484375 L 249.054688 317.503906 C 249.054688 292.339844 269.644531 271.753906 294.8125 271.753906 "/>
<path style=" stroke:none;fill-rule:evenodd;fill:rgb(0.799561%,31.399536%,63.899231%);fill-opacity:1;" d="M 2025.648438 226.671875 C 2119.011719 188.570313 2168.980469 149.433594 2160.921875 113.359375 C 2137.539063 8.742188 1635.058594 -30.546875 1038.828125 25.625 C 862.09375 42.277344 696.941406 65.445313 552.632813 92.535156 L 763.429688 96.199219 C 849.660156 83.734375 941.015625 72.800781 1035.929688 63.863281 C 1598.949219 10.851563 2073.429688 47.929688 2095.511719 146.667969 C 2101.230469 172.25 2075.949219 199.464844 2025.648438 226.671875 Z M 198.882813 180.4375 C 66.054688 225.574219 -8.289063 273.410156 1.414063 316.8125 C 7.273438 343.050781 43.289063 365.175781 103.34375 382.71875 C 76.265625 369.832031 59.984375 355.113281 56.3125 338.675781 C 48.316406 302.917969 100.78125 263.976563 197.664063 226.320313 L 198.882813 180.4375 "/>
<path style=" stroke:none;fill-rule:nonzero;fill:rgb(100%,100%,100%);fill-opacity:1;" d="M 1180.878906 303.195313 L 1246.121094 303.195313 L 1246.121094 316.734375 L 1198.570313 316.734375 L 1198.570313 325.058594 L 1243.710938 325.058594 L 1243.710938 337.71875 L 1198.570313 337.71875 L 1198.570313 346.953125 L 1246.460938 346.953125 L 1246.460938 360.796875 L 1180.878906 360.796875 Z M 1251.78125 303.195313 L 1269.730469 303.195313 L 1269.730469 329.65625 C 1269.820313 335.730469 1270.039063 339.578125 1270.378906 341.175781 C 1270.828125 343.425781 1272.320313 344.90625 1274.839844 345.613281 C 1277.359375 346.320313 1282.441406 346.664063 1290.078125 346.664063 C 1296.300781 346.664063 1300.609375 346.492188 1303.011719 346.132813 C 1305.410156 345.785156 1307.109375 345.09375 1308.121094 344.042969 C 1308.789063 343.308594 1309.238281 342.429688 1309.519531 341.394531 C 1309.789063 340.339844 1310.011719 338.554688 1310.140625 336.019531 C 1310.289063 333.441406 1310.359375 331.308594 1310.359375 329.65625 L 1310.359375 303.195313 L 1328.308594 303.195313 L 1328.308594 329.65625 C 1328.109375 338.859375 1327.808594 344.878906 1327.398438 347.714844 C 1326.699219 352.554688 1324.339844 356.097656 1320.328125 358.347656 C 1318.058594 359.640625 1314.851563 360.519531 1310.71875 360.96875 C 1306.578125 361.414063 1299.769531 361.644531 1290.300781 361.644531 C 1283.199219 361.644531 1277.730469 361.515625 1273.871094 361.269531 C 1270.011719 361.011719 1266.671875 360.5625 1263.808594 359.914063 C 1257.519531 358.445313 1253.839844 354.730469 1252.761719 348.765625 C 1252.371094 346.492188 1252.121094 344.417969 1252.011719 342.574219 C 1251.910156 340.714844 1251.839844 336.410156 1251.78125 329.65625 Z M 1336.300781 360.796875 L 1336.300781 303.195313 L 1379.671875 303.195313 C 1389.851563 303.222656 1395.941406 303.324219 1397.960938 303.507813 C 1399.980469 303.699219 1401.921875 304.347656 1403.789063 305.46875 C 1406.03125 306.792969 1407.558594 308.609375 1408.398438 310.941406 C 1409.238281 313.261719 1409.648438 316.90625 1409.648438 321.890625 C 1409.648438 326.082031 1409.390625 329.148438 1408.859375 331.125 C 1408.328125 333.09375 1407.328125 334.667969 1405.859375 335.847656 C 1404.28125 337.113281 1401.890625 337.992188 1398.699219 338.46875 C 1402.46875 338.742188 1405.160156 339.808594 1406.808594 341.636719 C 1407.75 342.730469 1408.359375 344.058594 1408.621094 345.613281 C 1408.871094 347.183594 1409.011719 350.453125 1409.011719 355.4375 L 1409.011719 360.796875 L 1391.320313 360.792969 L 1391.320313 357.714844 C 1391.320313 354.5 1391.199219 352.222656 1390.949219 350.855469 C 1390.699219 349.488281 1390.261719 348.4375 1389.589844 347.703125 C 1388.929688 347.039063 1388.019531 346.605469 1386.859375 346.421875 C 1385.691406 346.230469 1383.25 346.144531 1379.53125 346.148438 L 1354.25 346.144531 L 1354.25 360.792969 Z M 1354.25 331.757813 L 1379.488281 331.757813 C 1383.890625 331.671875 1386.519531 331.597656 1387.371094 331.527344 C 1388.210938 331.453125 1388.949219 331.238281 1389.550781 330.863281 C 1390.320313 330.390625 1390.859375 329.679688 1391.191406 328.746094 C 1391.488281 327.792969 1391.660156 326.371094 1391.660156 324.453125 C 1391.660156 322.582031 1391.480469 321.167969 1391.109375 320.234375 C 1390.761719 319.3125 1390.140625 318.636719 1389.238281 318.21875 C 1388.609375 317.929688 1387.859375 317.769531 1386.980469 317.710938 C 1386.101563 317.65625 1383.578125 317.613281 1379.449219 317.582031 L 1354.25 317.582031 Z M 1455.339844 302.34375 C 1468.050781 302.34375 1476.800781 302.644531 1481.558594 303.265625 C 1488.449219 304.171875 1492.660156 307.371094 1494.21875 312.859375 C 1495.28125 316.617188 1495.808594 323 1495.808594 331.972656 C 1495.808594 340.976563 1495.28125 347.371094 1494.21875 351.128906 C 1492.660156 356.617188 1488.449219 359.816406 1481.558594 360.722656 C 1476.800781 361.34375 1468.101563 361.644531 1455.511719 361.644531 C 1442.691406 361.644531 1433.878906 361.34375 1429.109375 360.722656 C 1422.230469 359.816406 1418.019531 356.617188 1416.460938 351.128906 C 1415.398438 347.371094 1414.871094 340.859375 1414.871094 331.640625 C 1414.871094 322.855469 1415.398438 316.589844 1416.460938 312.859375 C 1418.019531 307.371094 1422.230469 304.171875 1429.109375 303.265625 C 1433.851563 302.644531 1442.601563 302.34375 1455.339844 302.34375 Z M 1455.378906 317.324219 C 1445.871094 317.324219 1440.140625 317.570313 1438.210938 318.042969 C 1436 318.605469 1434.539063 319.859375 1433.851563 321.816406 C 1433.160156 323.777344 1432.820313 327.667969 1432.820313 333.5 C 1432.820313 337.015625 1433.011719 339.5625 1433.378906 341.132813 C 1434.101563 344.058594 1436.269531 345.742188 1439.890625 346.160156 C 1442.570313 346.492188 1447.75 346.664063 1455.46875 346.664063 C 1462.691406 346.664063 1467.488281 346.535156 1469.878906 346.289063 C 1472.261719 346.03125 1474.03125 345.46875 1475.171875 344.589844 C 1476.21875 343.8125 1476.929688 342.644531 1477.300781 341.117188 C 1477.660156 339.578125 1477.851563 337.070313 1477.851563 333.570313 C 1477.851563 329.4375 1477.710938 326.398438 1477.429688 324.453125 C 1477.128906 322.523438 1476.621094 321.054688 1475.871094 320.074219 C 1474.921875 318.835938 1473.351563 318.058594 1471.171875 317.769531 C 1468.988281 317.46875 1463.71875 317.324219 1455.378906 317.324219 Z M 1502.890625 360.796875 L 1502.890625 303.195313 L 1543.25 303.195313 C 1551.230469 303.195313 1556.378906 303.351563 1558.679688 303.652344 C 1564.519531 304.417969 1568.46875 306.25 1570.53125 309.15625 C 1572.578125 312.082031 1573.609375 317.265625 1573.609375 324.757813 C 1573.609375 331.871094 1572.761719 336.855469 1571.058594 339.734375 C 1569.910156 341.667969 1568.308594 343.148438 1566.230469 344.15625 C 1564.160156 345.179688 1561.328125 345.871094 1557.730469 346.277344 C 1555.171875 346.550781 1550.398438 346.695313 1543.398438 346.695313 L 1520.839844 346.695313 L 1520.839844 360.796875 Z M 1520.839844 332.304688 L 1543.269531 332.304688 C 1547.371094 332.277344 1549.859375 332.21875 1550.769531 332.132813 C 1551.671875 332.046875 1552.480469 331.828125 1553.199219 331.453125 C 1554.109375 330.976563 1554.75 330.257813 1555.101563 329.292969 C 1555.441406 328.3125 1555.621094 326.800781 1555.621094 324.757813 C 1555.621094 322.695313 1555.390625 321.199219 1554.96875 320.234375 C 1554.539063 319.28125 1553.769531 318.589844 1552.691406 318.171875 C 1551.871094 317.871094 1548.738281 317.667969 1543.269531 317.582031 L 1520.839844 317.582031 Z M 1579.519531 303.195313 L 1644.761719 303.195313 L 1644.761719 316.734375 L 1597.210938 316.734375 L 1597.210938 325.058594 L 1642.351563 325.058594 L 1642.351563 337.71875 L 1597.210938 337.71875 L 1597.210938 346.953125 L 1645.101563 346.953125 L 1645.101563 360.792969 L 1579.519531 360.792969 Z M 503.191406 303.195313 L 574.46875 303.195313 L 574.46875 317.886719 L 548.269531 317.886719 L 548.273438 360.796875 L 529.417969 360.792969 L 529.417969 317.886719 L 503.191406 317.886719 Z M 578.609375 360.792969 L 578.609375 303.195313 L 621.980469 303.195313 C 632.15625 303.222656 638.253906 303.324219 640.273438 303.507813 C 642.289063 303.699219 644.234375 304.347656 646.101563 305.46875 C 648.339844 306.792969 649.875 308.609375 650.714844 310.941406 C 651.554688 313.261719 651.96875 316.90625 651.96875 321.890625 C 651.96875 326.082031 651.703125 329.148438 651.167969 331.125 C 650.640625 333.09375 649.636719 334.667969 648.167969 335.847656 C 646.589844 337.113281 644.203125 337.992188 641.007813 338.46875 C 644.777344 338.742188 647.472656 339.808594 649.121094 341.636719 C 650.066406 342.730469 650.671875 344.058594 650.9375 345.613281 C 651.183594 347.183594 651.320313 350.453125 651.320313 355.4375 L 651.320313 360.796875 L 633.628906 360.796875 L 633.628906 357.710938 C 633.628906 354.5 633.511719 352.222656 633.261719 350.855469 C 633.011719 349.488281 632.570313 348.4375 631.90625 347.703125 C 631.242188 347.039063 630.328125 346.605469 629.164063 346.421875 C 628.003906 346.230469 625.558594 346.144531 621.847656 346.144531 L 596.5625 346.148438 L 596.5625 360.796875 Z M 596.5625 331.757813 L 621.804688 331.757813 C 626.207031 331.671875 628.828125 331.597656 629.683594 331.527344 C 630.519531 331.453125 631.257813 331.238281 631.863281 330.863281 C 632.628906 330.390625 633.171875 329.679688 633.496094 328.746094 C 633.804688 327.792969 633.96875 326.371094 633.96875 324.453125 C 633.96875 322.582031 633.792969 321.167969 633.421875 320.234375 C 633.070313 319.3125 632.453125 318.636719 631.554688 318.21875 C 630.921875 317.929688 630.167969 317.773438 629.28125 317.710938 C 628.414063 317.65625 625.898438 317.613281 621.757813 317.582031 L 596.5625 317.582031 Z M 722.0625 360.792969 L 717.015625 351.042969 L 678.0625 351.042969 L 673.007813 360.796875 L 652.507813 360.796875 L 683.746094 303.195313 L 711.628906 303.195313 L 742.433594 360.796875 Z M 710.726563 338.425781 L 699.371094 316.617188 L 695.796875 316.617188 L 684.4375 338.425781 Z M 800.328125 338.554688 L 818.28125 338.554688 C 818.382813 341.363281 818.445313 343.179688 818.445313 344 C 818.445313 348.453125 817.765625 351.921875 816.410156 354.429688 C 814.921875 357.234375 812.007813 359.152344 807.664063 360.160156 C 803.316406 361.183594 795.804688 361.6875 785.128906 361.6875 C 773.921875 361.6875 765.925781 361.472656 761.167969 361.054688 C 756.410156 360.636719 752.816406 359.816406 750.402344 358.605469 C 748.253906 357.511719 746.632813 356.027344 745.570313 354.167969 C 744.511719 352.3125 743.820313 349.777344 743.492188 346.535156 C 743.246094 343.914063 743.109375 339.191406 743.109375 332.347656 C 743.109375 325.675781 743.246094 320.867188 743.492188 317.914063 C 743.757813 314.960938 744.257813 312.671875 745.011719 311.042969 C 746.648438 307.382813 749.976563 305.007813 754.984375 303.929688 C 759.988281 302.847656 770.078125 302.300781 785.261719 302.300781 C 792.859375 302.300781 798.382813 302.472656 801.828125 302.804688 C 805.292969 303.148438 808.03125 303.785156 810.078125 304.707031 C 812.757813 305.945313 814.628906 307.789063 815.734375 310.222656 C 816.824219 312.65625 817.367188 316.230469 817.367188 320.96875 C 817.367188 321.210938 817.351563 322.175781 817.324219 323.835938 L 799.386719 323.835938 C 799.296875 321.917969 799.164063 320.636719 799.015625 319.988281 C 798.855469 319.339844 798.53125 318.808594 798.046875 318.375 C 797.351563 317.785156 795.617188 317.351563 792.816406 317.09375 C 790.035156 316.820313 785.804688 316.691406 780.136719 316.691406 C 774.523438 316.691406 770.636719 316.804688 768.488281 317.050781 C 766.320313 317.292969 764.804688 317.757813 763.90625 318.460938 C 762.84375 319.3125 762.109375 320.722656 761.683594 322.726563 C 761.273438 324.726563 761.066406 327.910156 761.066406 332.277344 C 761.066406 336.625 761.257813 339.707031 761.625 341.492188 C 761.992188 343.28125 762.714844 344.5625 763.789063 345.351563 C 764.789063 346.117188 766.398438 346.621094 768.59375 346.878906 C 770.800781 347.125 774.6875 347.253906 780.269531 347.253906 C 787.132813 347.253906 791.726563 347.140625 794.007813 346.925781 C 796.292969 346.695313 797.839844 346.203125 798.648438 345.441406 C 799.710938 344.460938 800.269531 342.15625 800.328125 338.554688 Z M 820.519531 303.195313 L 891.796875 303.195313 L 891.796875 317.886719 L 865.601563 317.886719 L 865.601563 360.796875 L 846.746094 360.796875 L 846.746094 317.886719 L 820.519531 317.886719 Z M 936.1875 302.34375 C 948.898438 302.34375 957.644531 302.644531 962.414063 303.265625 C 969.292969 304.171875 973.507813 307.371094 975.066406 312.859375 C 976.128906 316.617188 976.65625 323 976.65625 331.972656 C 976.65625 340.976563 976.128906 347.371094 975.066406 351.128906 C 973.507813 356.617188 969.292969 359.816406 962.414063 360.722656 C 957.644531 361.34375 948.953125 361.644531 936.363281 361.644531 C 923.535156 361.644531 914.726563 361.34375 909.957031 360.722656 C 903.078125 359.816406 898.867188 356.617188 897.308594 351.128906 C 896.242188 347.371094 895.714844 340.859375 895.714844 331.640625 C 895.714844 322.855469 896.242188 316.589844 897.308594 312.859375 C 898.867188 307.371094 903.078125 304.171875 909.957031 303.265625 C 914.699219 302.644531 923.449219 302.34375 936.1875 302.34375 Z M 936.230469 317.324219 C 926.71875 317.324219 920.988281 317.570313 919.058594 318.042969 C 916.851563 318.605469 915.390625 319.859375 914.699219 321.816406 C 914.007813 323.777344 913.667969 327.667969 913.667969 333.5 C 913.667969 337.015625 913.859375 339.5625 914.226563 341.132813 C 914.949219 344.058594 917.113281 345.742188 920.734375 346.160156 C 923.417969 346.492188 928.601563 346.664063 936.320313 346.664063 C 943.539063 346.664063 948.335938 346.535156 950.722656 346.289063 C 953.109375 346.03125 954.875 345.46875 956.023438 344.589844 C 957.070313 343.8125 957.777344 342.644531 958.144531 341.117188 C 958.515625 339.578125 958.703125 337.070313 958.703125 333.570313 C 958.703125 329.4375 958.554688 326.398438 958.28125 324.453125 C 957.984375 322.523438 957.46875 321.054688 956.71875 320.074219 C 955.773438 318.835938 954.195313 318.058594 952.015625 317.773438 C 949.839844 317.46875 944.570313 317.324219 936.230469 317.324219 Z M 983.742188 360.796875 L 983.742188 303.195313 L 1027.109375 303.195313 C 1037.289063 303.222656 1043.390625 303.324219 1045.398438 303.507813 C 1047.421875 303.699219 1049.371094 304.347656 1051.238281 305.46875 C 1053.480469 306.792969 1055.011719 308.609375 1055.851563 310.941406 C 1056.679688 313.261719 1057.101563 316.90625 1057.101563 321.890625 C 1057.101563 326.082031 1056.828125 329.148438 1056.300781 331.125 C 1055.769531 333.09375 1054.769531 334.667969 1053.300781 335.847656 C 1051.71875 337.113281 1049.328125 337.992188 1046.140625 338.46875 C 1049.910156 338.742188 1052.609375 339.808594 1054.261719 341.636719 C 1055.199219 342.730469 1055.800781 344.058594 1056.070313 345.613281 C 1056.320313 347.183594 1056.449219 350.453125 1056.449219 355.4375 L 1056.449219 360.796875 L 1038.761719 360.796875 L 1038.761719 357.710938 C 1038.761719 354.5 1038.640625 352.222656 1038.390625 350.855469 C 1038.140625 349.488281 1037.699219 348.4375 1037.039063 347.703125 C 1036.378906 347.039063 1035.460938 346.605469 1034.300781 346.421875 C 1033.128906 346.230469 1030.691406 346.144531 1026.980469 346.144531 L 1001.691406 346.144531 L 1001.691406 360.792969 Z M 1001.691406 331.757813 L 1026.929688 331.757813 C 1031.339844 331.671875 1033.960938 331.597656 1034.808594 331.527344 C 1035.648438 331.453125 1036.390625 331.238281 1037 330.863281 C 1037.761719 330.390625 1038.300781 329.679688 1038.628906 328.746094 C 1038.941406 327.792969 1039.101563 326.371094 1039.101563 324.453125 C 1039.101563 322.582031 1038.921875 321.167969 1038.558594 320.234375 C 1038.199219 319.3125 1037.578125 318.636719 1036.679688 318.21875 C 1036.050781 317.929688 1035.300781 317.769531 1034.421875 317.710938 C 1033.550781 317.65625 1031.03125 317.613281 1026.890625 317.582031 L 1001.691406 317.582031 Z M 1061.191406 341.722656 L 1078.570313 341.722656 C 1078.539063 344.5625 1079.128906 346.390625 1080.339844 347.210938 C 1081.199219 347.746094 1082.328125 348.0625 1083.679688 348.164063 C 1085.050781 348.261719 1089.359375 348.335938 1096.609375 348.394531 C 1104.199219 348.363281 1108.761719 348.320313 1110.28125 348.25 C 1111.808594 348.179688 1113.019531 347.960938 1113.898438 347.585938 C 1115.230469 347.054688 1115.890625 345.613281 1115.890625 343.234375 C 1115.890625 341.523438 1115.421875 340.382813 1114.488281 339.808594 C 1113.550781 339.230469 1111.648438 338.914063 1108.769531 338.859375 C 1106.550781 338.859375 1101.871094 338.6875 1094.710938 338.351563 C 1087.378906 338.007813 1082.609375 337.808594 1080.378906 337.761719 C 1076.070313 337.617188 1072.75 337.214844 1070.441406 336.554688 C 1068.128906 335.890625 1066.320313 334.808594 1065.03125 333.324219 C 1062.808594 330.847656 1061.710938 326.714844 1061.710938 320.910156 C 1061.710938 314.414063 1062.96875 309.835938 1065.511719 307.152344 C 1067.441406 305.066406 1070.390625 303.742188 1074.390625 303.164063 C 1078.390625 302.589844 1086.519531 302.300781 1098.769531 302.300781 C 1107.441406 302.300781 1113.519531 302.546875 1117.019531 303.019531 C 1122.429688 303.753906 1126.140625 305.226563 1128.160156 307.429688 C 1130.171875 309.644531 1131.171875 313.363281 1131.171875 318.589844 C 1131.171875 319.082031 1131.160156 319.972656 1131.128906 321.296875 L 1113.738281 321.296875 C 1113.679688 319.6875 1113.550781 318.589844 1113.328125 318 C 1113.121094 317.410156 1112.691406 316.933594 1112.058594 316.558594 C 1111.28125 316.113281 1109.910156 315.824219 1107.96875 315.695313 C 1106.011719 315.566406 1101.871094 315.507813 1095.53125 315.507813 C 1087.910156 315.507813 1083.269531 315.738281 1081.601563 316.199219 C 1079.941406 316.675781 1079.101563 317.957031 1079.101563 320.058594 C 1079.101563 322.089844 1079.941406 323.328125 1081.601563 323.777344 C 1082.988281 324.152344 1089.320313 324.496094 1100.628906 324.84375 C 1110.140625 325.117188 1116.511719 325.445313 1119.71875 325.820313 C 1122.929688 326.210938 1125.480469 326.929688 1127.378906 327.996094 C 1129.53125 329.265625 1131.058594 331.007813 1131.941406 333.210938 C 1132.839844 335.429688 1133.28125 338.597656 1133.28125 342.730469 C 1133.28125 348.164063 1132.53125 352.210938 1131.039063 354.84375 C 1129.921875 356.789063 1128.359375 358.246094 1126.359375 359.195313 C 1124.359375 360.148438 1121.550781 360.796875 1117.921875 361.140625 C 1114.03125 361.472656 1106.800781 361.644531 1096.230469 361.644531 C 1087.359375 361.644531 1080.820313 361.414063 1076.589844 360.96875 C 1072.371094 360.519531 1069.191406 359.714844 1067.050781 358.5625 C 1064.839844 357.324219 1063.308594 355.695313 1062.460938 353.664063 C 1061.621094 351.648438 1061.191406 348.566406 1061.191406 344.417969 L 1061.191406 341.722656 "/>
</g>
</svg>
