<svg xmlns="http://www.w3.org/2000/svg"  viewBox="0 0 50 50" width="60px" height="60px" ><path d="M 43.818359 1 C 43.818359 1 40.123579 1.05568 35.705078 2.1894531 C 31.286577 3.3232261 26.037265 5.5288123 22.964844 10.037109 A 1.0001 1.0001 0 0 0 22.917969 10.111328 L 17.890625 19.072266 C 17.365579 19.032769 16.823171 19.002176 16.253906 19 C 12.58418 18.986455 7.4069882 19.879524 3.2050781 25.394531 A 1.0001 1.0001 0 0 0 4 27 L 5.75 27 C 8.069217 27 10.542831 27.382642 12.662109 28.394531 L 12.388672 28.880859 C 11.618752 30.24524 12.047674 32.00006 13.363281 32.857422 L 14.630859 33.699219 C 14.26563 34.081365 13.926117 34.499742 13.623047 34.960938 C 12.469932 36.704369 11.530781 39.342044 11.158203 41.898438 C 10.971914 43.176634 10.929558 44.430474 11.134766 45.560547 C 11.339976 46.690619 11.813645 47.756725 12.763672 48.408203 C 13.711794 49.057477 14.874976 49.104329 15.984375 48.869141 C 17.093774 48.633953 18.217279 48.120531 19.308594 47.460938 C 21.491224 46.141748 23.533325 44.25661 24.685547 42.509766 A 1.0001 1.0001 0 0 0 24.6875 42.505859 C 25.020834 41.995689 25.296025 41.463749 25.513672 40.919922 L 26.378906 41.494141 A 1.0001 1.0001 0 0 0 26.380859 41.494141 C 27.551262 42.265542 29.086872 42.126784 30.103516 41.21875 C 32.32028 43.653078 33.379357 46.52464 34.064453 48.351562 A 1.0001 1.0001 0 0 0 35.796875 48.605469 C 38.291746 45.322744 39 42.258333 39 39 C 39 36.343904 38.107255 34.137089 37.322266 32.464844 L 44.097656 24.183594 A 1.0001 1.0001 0 0 0 44.148438 24.113281 C 46.355421 20.8775 47.018682 17.038588 47 13.494141 C 46.966788 7.1745084 44.763672 1.6328125 44.763672 1.6328125 A 1.0001 1.0001 0 0 0 43.818359 1 z M 43.113281 3.0527344 C 43.452688 3.9736182 44.972343 8.243179 45 13.505859 C 45.01729 16.787078 44.391034 20.198416 42.501953 22.974609 L 28.888672 39.617188 A 1.0001 1.0001 0 0 0 28.886719 39.619141 C 28.55271 40.029061 27.937175 40.123943 27.482422 39.824219 L 14.462891 31.1875 A 1.0001 1.0001 0 0 0 14.455078 31.181641 C 13.991252 30.879421 13.862175 30.336693 14.130859 29.861328 A 1.0001 1.0001 0 0 0 14.132812 29.859375 L 24.630859 11.148438 C 27.271847 7.2877902 32.034596 5.1965842 36.203125 4.1269531 C 39.698935 3.2299396 42.229099 3.0890053 43.113281 3.0527344 z M 33.5 11 C 29.921994 11 27 13.921994 27 17.5 C 27 21.078006 29.921994 24 33.5 24 C 37.078006 24 40 21.078006 40 17.5 C 40 13.921994 37.078006 11 33.5 11 z M 33.5 13 C 35.997126 13 38 15.002874 38 17.5 C 38 19.997126 35.997126 22 33.5 22 C 31.002874 22 29 19.997126 29 17.5 C 29 15.002874 31.002874 13 33.5 13 z M 16.246094 21 C 16.432381 21.000703 16.614267 21.013235 16.798828 21.019531 L 13.642578 26.646484 C 11.31193 25.509754 8.729433 25.112274 6.3105469 25.056641 C 9.7035884 21.648289 13.310085 20.989163 16.246094 21 z M 35.900391 34.203125 C 36.487794 35.599708 37 37.202785 37 39 C 37 41.390251 36.3945 43.475748 35.105469 45.710938 C 34.361404 43.890346 33.339012 41.724891 31.416016 39.683594 L 35.900391 34.203125 z M 16.951172 35.238281 L 23.240234 39.412109 C 22.513638 40.32839 21.21122 41.454434 19.869141 42.177734 C 19.117709 42.582711 18.36213 42.863023 17.746094 42.958984 C 17.130058 43.054944 16.702021 42.974034 16.419922 42.785156 C 16.137318 42.593722 15.901331 42.228225 15.757812 41.623047 C 15.614009 41.016663 15.587924 40.211748 15.679688 39.363281 C 15.84131 37.868792 16.383598 36.263103 16.951172 35.238281 z M 13.632812 39.992188 C 13.607059 40.713214 13.652991 41.419599 13.810547 42.083984 C 14.029212 43.006038 14.482034 43.890431 15.304688 44.445312 A 1.0001 1.0001 0 0 0 15.306641 44.447266 C 16.130542 44.998892 17.118785 45.081335 18.054688 44.935547 C 18.883991 44.806364 19.709315 44.496921 20.509766 44.09375 C 19.803371 44.700938 19.047124 45.283562 18.275391 45.75 C 17.316956 46.329281 16.355852 46.747532 15.570312 46.914062 C 14.784774 47.080593 14.242409 46.997992 13.894531 46.759766 C 13.543058 46.518744 13.249665 46.018709 13.101562 45.203125 C 12.953461 44.387541 12.972255 43.315928 13.136719 42.1875 C 13.242353 41.462707 13.424729 40.722127 13.632812 39.992188 z"/></svg>